<svg width="9" height="10" viewBox="0 0 9 10" fill="none" xmlns="http://www.w3.org/2000/svg">
<path d="M0 9.0625C0 9.58008 0.43192 10 0.964286 10H8.03571C8.56808 10 9 9.58008 9 9.0625V3.75H0V9.0625ZM6.42857 5.23438C6.42857 5.10547 6.53705 5 6.66964 5H7.47321C7.6058 5 7.71429 5.10547 7.71429 5.23438V6.01562C7.71429 6.14453 7.6058 6.25 7.47321 6.25H6.66964C6.53705 6.25 6.42857 6.14453 6.42857 6.01562V5.23438ZM6.42857 7.73438C6.42857 7.60547 6.53705 7.5 6.66964 7.5H7.47321C7.6058 7.5 7.71429 7.60547 7.71429 7.73438V8.51562C7.71429 8.64453 7.6058 8.75 7.47321 8.75H6.66964C6.53705 8.75 6.42857 8.64453 6.42857 8.51562V7.73438ZM3.85714 5.23438C3.85714 5.10547 3.96563 5 4.09821 5H4.90179C5.03437 5 5.14286 5.10547 5.14286 5.23438V6.01562C5.14286 6.14453 5.03437 6.25 4.90179 6.25H4.09821C3.96563 6.25 3.85714 6.14453 3.85714 6.01562V5.23438ZM3.85714 7.73438C3.85714 7.60547 3.96563 7.5 4.09821 7.5H4.90179C5.03437 7.5 5.14286 7.60547 5.14286 7.73438V8.51562C5.14286 8.64453 5.03437 8.75 4.90179 8.75H4.09821C3.96563 8.75 3.85714 8.64453 3.85714 8.51562V7.73438ZM1.28571 5.23438C1.28571 5.10547 1.3942 5 1.52679 5H2.33036C2.46295 5 2.57143 5.10547 2.57143 5.23438V6.01562C2.57143 6.14453 2.46295 6.25 2.33036 6.25H1.52679C1.3942 6.25 1.28571 6.14453 1.28571 6.01562V5.23438ZM1.28571 7.73438C1.28571 7.60547 1.3942 7.5 1.52679 7.5H2.33036C2.46295 7.5 2.57143 7.60547 2.57143 7.73438V8.51562C2.57143 8.64453 2.46295 8.75 2.33036 8.75H1.52679C1.3942 8.75 1.28571 8.64453 1.28571 8.51562V7.73438ZM8.03571 1.25H7.07143V0.3125C7.07143 0.140625 6.92679 0 6.75 0H6.10714C5.93036 0 5.78571 0.140625 5.78571 0.3125V1.25H3.21429V0.3125C3.21429 0.140625 3.06964 0 2.89286 0H2.25C2.07321 0 1.92857 0.140625 1.92857 0.3125V1.25H0.964286C0.43192 1.25 0 1.66992 0 2.1875V3.125H9V2.1875C9 1.66992 8.56808 1.25 8.03571 1.25Z" fill="#C4C4C4"/>
</svg>
