<svg width="20" height="17" viewBox="0 0 20 17" fill="none" xmlns="http://www.w3.org/2000/svg">
<path d="M20 4.25V15.1786C20 16.1842 19.1602 17 18.125 17H1.875C0.839844 17 0 16.1842 0 15.1786V4.25C0 3.24442 0.839844 2.42857 1.875 2.42857H5.3125L5.79297 1.18013C6.06641 0.470536 6.76562 0 7.54688 0H12.4492C13.2305 0 13.9297 0.470536 14.2031 1.18013L14.6875 2.42857H18.125C19.1602 2.42857 20 3.24442 20 4.25ZM14.6875 9.71429C14.6875 7.20223 12.5859 5.16071 10 5.16071C7.41406 5.16071 5.3125 7.20223 5.3125 9.71429C5.3125 12.2263 7.41406 14.2679 10 14.2679C12.5859 14.2679 14.6875 12.2263 14.6875 9.71429ZM13.4375 9.71429C13.4375 11.5547 11.8945 13.0536 10 13.0536C8.10547 13.0536 6.5625 11.5547 6.5625 9.71429C6.5625 7.87388 8.10547 6.375 10 6.375C11.8945 6.375 13.4375 7.87388 13.4375 9.71429Z" fill="#AAAAAA"/>
</svg>
