<svg width="15" height="12" viewBox="0 0 15 12" fill="none" xmlns="http://www.w3.org/2000/svg">
<path d="M13.5938 12H1.40625C0.62959 12 0 11.3284 0 10.5V1.5C0 0.671562 0.62959 0 1.40625 0H13.5938C14.3704 0 15 0.671562 15 1.5V10.5C15 11.3284 14.3704 12 13.5938 12ZM3.28125 1.75C2.37516 1.75 1.64063 2.5335 1.64063 3.5C1.64063 4.4665 2.37516 5.25 3.28125 5.25C4.18734 5.25 4.92188 4.4665 4.92188 3.5C4.92188 2.5335 4.18734 1.75 3.28125 1.75ZM1.875 10H13.125V6.5L10.5611 3.76516C10.4238 3.61872 10.2012 3.61872 10.0639 3.76516L6.09375 8L4.46733 6.26516C4.33005 6.11872 4.10745 6.11872 3.97014 6.26516L1.875 8.5V10Z" fill="#C4C4C4"/>
</svg>
