<svg width="61" height="70" viewBox="0 0 61 70" fill="none" xmlns="http://www.w3.org/2000/svg">
<path d="M55.66 17.501C52.6066 17.4423 50.1073 20.0102 50.1073 23.0768V35H49.018V10.9088C49.018 7.84221 46.5186 5.27436 43.4652 5.33301C40.5063 5.38989 38.1251 7.8161 38.1251 10.8008V35H37.0358V5.57678C37.0358 2.51018 34.5364 -0.057667 31.483 0.000985304C28.5241 0.0578603 26.1429 2.48407 26.1429 5.46878V35H25.0536V11.0455C25.0536 7.97893 22.5543 5.41108 19.5008 5.46973C16.5419 5.52661 14.1607 7.95282 14.1607 10.9375V43.202L9.85153 37.2522C8.08239 34.8096 4.67618 34.2694 2.24326 36.0459C-0.189259 37.8224 -0.727095 41.2426 1.04204 43.6853L18.144 67.2973C18.7503 68.1345 19.5453 68.8157 20.4639 69.2854C21.3825 69.7551 22.3988 70 23.4296 70H50.3337C53.3665 70 56.001 67.9049 56.6957 64.9406L60.305 49.5379C60.7668 47.5674 61 45.5499 61 43.5257V22.9688C61.0001 19.9841 58.619 17.5579 55.66 17.501Z" fill="#C4C4C4"/>
</svg>
