<svg width="26" height="26" viewBox="0 0 26 26" fill="none" xmlns="http://www.w3.org/2000/svg">
<path d="M12.8521 20.6667C13.3042 20.6667 13.6865 20.5104 13.9991 20.1978C14.3117 19.8852 14.4675 19.5033 14.4667 19.0521C14.4658 18.6009 14.3099 18.2185 13.9991 17.9051C13.6882 17.5916 13.3059 17.4358 12.8521 17.4375C12.3983 17.4392 12.0164 17.5955 11.7064 17.9064C11.3964 18.2172 11.2401 18.5991 11.2375 19.0521C11.2349 19.505 11.3912 19.8874 11.7064 20.1991C12.0215 20.5108 12.4034 20.6667 12.8521 20.6667ZM11.6896 15.6938H14.0792C14.0792 14.9833 14.1601 14.4236 14.322 14.0146C14.4839 13.6056 14.9411 13.0458 15.6938 12.3354C16.2535 11.7757 16.6948 11.2427 17.0177 10.7363C17.3406 10.23 17.5021 9.62206 17.5021 8.91251C17.5021 7.70695 17.0608 6.78126 16.1781 6.13542C15.2955 5.48959 14.2514 5.16667 13.0458 5.16667C11.8188 5.16667 10.8233 5.48959 10.0595 6.13542C9.2957 6.78126 8.76267 7.55626 8.46042 8.46042L10.5917 9.30001C10.6993 8.91251 10.9417 8.49271 11.3189 8.04063C11.696 7.58855 12.2717 7.36251 13.0458 7.36251C13.7347 7.36251 14.2514 7.55109 14.5958 7.92826C14.9403 8.30542 15.1125 8.71962 15.1125 9.17084C15.1125 9.6014 14.9833 10.0053 14.725 10.3824C14.4667 10.7596 14.1438 11.1092 13.7563 11.4313C12.809 12.2708 12.2278 12.9059 12.0125 13.3365C11.7972 13.767 11.6896 14.5528 11.6896 15.6938ZM12.9167 25.8333C11.1299 25.8333 9.4507 25.4945 7.87917 24.8168C6.30764 24.1391 4.94063 23.2186 3.77813 22.0552C2.61563 20.8919 1.69553 19.5248 1.01784 17.9542C0.340141 16.3835 0.000862746 14.7043 1.63502e-06 12.9167C-0.000859476 11.129 0.338418 9.44984 1.01784 7.87917C1.69725 6.30851 2.61735 4.94149 3.77813 3.77813C4.9389 2.61477 6.30592 1.69467 7.87917 1.01784C9.45242 0.341007 11.1316 0.00172875 12.9167 6.52357e-06C14.7018 -0.0017157 16.3809 0.337562 17.9542 1.01784C19.5274 1.69812 20.8944 2.61821 22.0552 3.77813C23.216 4.93805 24.1365 6.30506 24.8168 7.87917C25.4971 9.45329 25.8359 11.1325 25.8333 12.9167C25.8308 14.7009 25.4915 16.3801 24.8155 17.9542C24.1395 19.5283 23.2194 20.8953 22.0552 22.0552C20.891 23.2151 19.524 24.1357 17.9542 24.8168C16.3844 25.4979 14.7052 25.8368 12.9167 25.8333ZM12.9167 23.25C15.8014 23.25 18.2448 22.249 20.2469 20.2469C22.249 18.2448 23.25 15.8014 23.25 12.9167C23.25 10.0319 22.249 7.58855 20.2469 5.58646C18.2448 3.58438 15.8014 2.58334 12.9167 2.58334C10.0319 2.58334 7.58854 3.58438 5.58646 5.58646C3.58438 7.58855 2.58333 10.0319 2.58333 12.9167C2.58333 15.8014 3.58438 18.2448 5.58646 20.2469C7.58854 22.249 10.0319 23.25 12.9167 23.25Z" fill="#A6A6A6"/>
</svg>
