<svg width="20" height="15" viewBox="0 0 20 15" fill="none" xmlns="http://www.w3.org/2000/svg">
<path d="M16.6667 12.8571V13.3929C16.6667 14.2805 15.9205 15 15 15H1.66667C0.746181 15 0 14.2805 0 13.3929V4.82143C0 3.93382 0.746181 3.21429 1.66667 3.21429H2.22222V10.1786C2.22222 11.6555 3.46833 12.8571 5 12.8571H16.6667ZM20 10.1786V1.60714C20 0.719531 19.2538 0 18.3333 0H5C4.07951 0 3.33333 0.719531 3.33333 1.60714V10.1786C3.33333 11.0662 4.07951 11.7857 5 11.7857H18.3333C19.2538 11.7857 20 11.0662 20 10.1786ZM8.88889 3.21429C8.88889 4.1019 8.14271 4.82143 7.22222 4.82143C6.30174 4.82143 5.55556 4.1019 5.55556 3.21429C5.55556 2.32667 6.30174 1.60714 7.22222 1.60714C8.14271 1.60714 8.88889 2.32667 8.88889 3.21429ZM5.55556 8.03571L7.48316 6.17695C7.64587 6.02006 7.90969 6.02006 8.07243 6.17695L9.44444 7.5L14.1498 2.96267C14.3125 2.80577 14.5764 2.80577 14.7391 2.96267L17.7778 5.89286V9.64286H5.55556V8.03571Z" fill="#C4C4C4"/>
</svg>
