<svg width="17" height="17" viewBox="0 0 17 17" fill="none" xmlns="http://www.w3.org/2000/svg">
<path d="M9.10075 0.248871L16.7493 7.89895C17.2847 8.43446 16.9057 9.34992 16.1485 9.34992H15.2986V14.45C15.2986 15.1263 15.03 15.7749 14.5519 16.2531C14.0738 16.7313 13.4253 17 12.7491 17H11.8993V11.0499C11.8993 10.3995 11.6508 9.77363 11.2047 9.3004C10.7586 8.82716 10.1485 8.54232 9.49932 8.50416L9.34975 8.49991H7.65007C6.97389 8.49991 6.32541 8.76857 5.84728 9.24679C5.36915 9.72502 5.10054 10.3736 5.10054 11.0499V17H4.2507C3.57452 17 2.92604 16.7313 2.44791 16.2531C1.96978 15.7749 1.70117 15.1263 1.70117 14.45V9.34992H0.851328C0.0949681 9.34992 -0.284912 8.43446 0.250489 7.89895L7.89907 0.248871C8.05844 0.089519 8.27456 0 8.49991 0C8.72526 0 8.94138 0.089519 9.10075 0.248871ZM9.34975 10.1999C9.57514 10.1999 9.79131 10.2895 9.95068 10.4489C10.1101 10.6083 10.1996 10.8245 10.1996 11.0499V17H6.80023V11.0499C6.80025 10.8417 6.87667 10.6408 7.01499 10.4852C7.15331 10.3296 7.34391 10.2302 7.55064 10.2059L7.65007 10.1999H9.34975Z" fill="#C4C4C4"/>
</svg>
