<svg width="21" height="26" viewBox="0 0 21 26" fill="none" xmlns="http://www.w3.org/2000/svg">
<path d="M3.25016 25.5833C2.58558 25.5833 2.01686 25.3469 1.544 24.874C1.07113 24.4012 0.834302 23.832 0.833496 23.1666V11.0833C0.833496 10.4187 1.07033 9.85001 1.544 9.37715C2.01766 8.90429 2.58639 8.66745 3.25016 8.66665H4.4585V6.24998C4.4585 4.57845 5.04776 3.15383 6.22629 1.97611C7.40482 0.798383 8.82944 0.209119 10.5002 0.208314C12.1709 0.207508 13.5959 0.796772 14.7752 1.97611C15.9546 3.15544 16.5434 4.58006 16.5418 6.24998V8.66665H17.7502C18.4147 8.66665 18.9839 8.90348 19.4575 9.37715C19.9312 9.85081 20.1676 10.4195 20.1668 11.0833V23.1666C20.1668 23.8312 19.9304 24.4004 19.4575 24.874C18.9847 25.3477 18.4156 25.5841 17.7502 25.5833H3.25016ZM3.25016 23.1666H17.7502V11.0833H3.25016V23.1666ZM10.5002 19.5416C11.1647 19.5416 11.7339 19.3052 12.2075 18.8324C12.6812 18.3595 12.9176 17.7904 12.9168 17.125C12.916 16.4596 12.6796 15.8909 12.2075 15.4188C11.7355 14.9468 11.1664 14.7099 10.5002 14.7083C9.83397 14.7067 9.26525 14.9435 8.794 15.4188C8.32275 15.8941 8.08591 16.4628 8.0835 17.125C8.08108 17.7871 8.31791 18.3563 8.794 18.8324C9.27008 19.3084 9.8388 19.5449 10.5002 19.5416ZM6.87516 8.66665H14.1252V6.24998C14.1252 5.24304 13.7727 4.38713 13.0679 3.68227C12.363 2.97741 11.5071 2.62498 10.5002 2.62498C9.49322 2.62498 8.63732 2.97741 7.93245 3.68227C7.22759 4.38713 6.87516 5.24304 6.87516 6.24998V8.66665Z" fill="#A6A6A6"/>
</svg>
