<svg width="29" height="26" viewBox="0 0 29 26" fill="none" xmlns="http://www.w3.org/2000/svg">
<path d="M11.5 26C13.3133 26 14.7842 24.5451 14.7842 22.75H8.21584C8.21584 24.5451 9.6867 26 11.5 26ZM22.5579 18.3975C21.5661 17.3433 19.7102 15.7574 19.7102 10.5625C19.7102 6.6168 16.9132 3.4582 13.1418 2.68328V1.625C13.1418 0.727695 12.4066 0 11.5 0C10.5934 0 9.85817 0.727695 9.85817 1.625V2.68328C6.0868 3.4582 3.28985 6.6168 3.28985 10.5625C3.28985 15.7574 1.43394 17.3433 0.442065 18.3975C0.134031 18.7251 -0.00253146 19.1166 3.54953e-05 19.5C0.0056828 20.3328 0.666417 21.125 1.64802 21.125H21.352C22.3336 21.125 22.9948 20.3328 23 19.5C23.0025 19.1166 22.866 18.7246 22.5579 18.3975Z" fill="#C4C4C4"/>
<circle cx="21.5" cy="17.5" r="7.5" fill="#FF3030"/>
<path d="M18.8281 21V20.2969L21.4687 17.4062C21.7786 17.0677 22.0339 16.7734 22.2344 16.5234C22.4349 16.2708 22.5833 16.0339 22.6797 15.8125C22.7786 15.5885 22.8281 15.3542 22.8281 15.1094C22.8281 14.8281 22.7604 14.5846 22.625 14.3789C22.4922 14.1732 22.3099 14.0143 22.0781 13.9023C21.8464 13.7904 21.5859 13.7344 21.2969 13.7344C20.9896 13.7344 20.7214 13.7982 20.4922 13.9258C20.2656 14.0508 20.0898 14.2266 19.9648 14.4531C19.8424 14.6797 19.7813 14.9453 19.7813 15.25H18.8594C18.8594 14.7812 18.9674 14.3698 19.1836 14.0156C19.3997 13.6615 19.694 13.3854 20.0664 13.1875C20.4414 12.9896 20.862 12.8906 21.3281 12.8906C21.7969 12.8906 22.2122 12.9896 22.5742 13.1875C22.9362 13.3854 23.2201 13.6523 23.4258 13.9883C23.6315 14.3242 23.7344 14.6979 23.7344 15.1094C23.7344 15.4036 23.681 15.6914 23.5742 15.9727C23.4701 16.2513 23.2878 16.5625 23.0273 16.9062C22.7695 17.2474 22.4115 17.6641 21.9531 18.1562L20.1563 20.0781V20.1406H23.875V21H18.8281Z" fill="white"/>
</svg>
