<svg width="12" height="15" viewBox="0 0 12 15" fill="none" xmlns="http://www.w3.org/2000/svg">
<path d="M11.7083 3.60149L8.66667 6.31188V13.9604C8.66667 14.245 8.55208 14.4895 8.32292 14.6937C8.09375 14.8979 7.81944 15 7.5 15C7.18056 15 6.90625 14.8979 6.67708 14.6937C6.44792 14.4895 6.33333 14.245 6.33333 13.9604V10.396H5.66667V13.9604C5.66667 14.245 5.55208 14.4895 5.32292 14.6937C5.09375 14.8979 4.81944 15 4.5 15C4.18056 15 3.90625 14.8979 3.67708 14.6937C3.44792 14.4895 3.33333 14.245 3.33333 13.9604V6.31188L0.291667 3.60149C0.0972222 3.42822 0 3.21782 0 2.9703C0 2.72277 0.0972222 2.51238 0.291667 2.33911C0.493056 2.16584 0.730903 2.07921 1.00521 2.07921C1.27951 2.07921 1.51389 2.16584 1.70833 2.33911L4.08333 4.45545H7.91667L10.2917 2.33911C10.4861 2.16584 10.7222 2.07921 11 2.07921C11.2778 2.07921 11.5139 2.16584 11.7083 2.33911C11.9028 2.51856 12 2.73051 12 2.97494C12 3.21937 11.9028 3.42822 11.7083 3.60149ZM8.33333 2.07921C8.33333 2.6547 8.1059 3.14511 7.65104 3.55043C7.19618 3.95575 6.64583 4.15842 6 4.15842C5.35417 4.15842 4.80382 3.95575 4.34896 3.55043C3.8941 3.14511 3.66667 2.6547 3.66667 2.07921C3.66667 1.50371 3.8941 1.0133 4.34896 0.607983C4.80382 0.202661 5.35417 0 6 0C6.64583 0 7.19618 0.202661 7.65104 0.607983C8.1059 1.0133 8.33333 1.50371 8.33333 2.07921Z" fill="#C4C4C4"/>
</svg>
