<svg width="16" height="18" viewBox="0 0 16 18" fill="none" xmlns="http://www.w3.org/2000/svg">
<path d="M3.10907 12.4364H12.4363V13.9909H3.10907V12.4364ZM6.21815 8.41789L8.38829 10.5896L11.4445 7.53102L12.4363 8.55002V5.44094H9.32723L10.3455 6.43196L8.38751 8.38991L6.21815 6.21821L3.10907 9.32729L4.20813 10.4264L6.21815 8.41789Z" fill="#C4C4C4"/>
<path d="M13.2136 1.55459H10.6502C10.5732 1.44015 10.4901 1.32988 10.4014 1.22425L10.3937 1.21493C9.82238 0.550028 9.01901 0.128052 8.14735 0.0350303C7.89977 -0.0116768 7.64564 -0.0116768 7.39806 0.0350303C6.5264 0.128052 5.72303 0.550028 5.15175 1.21493L5.14398 1.22425C5.05529 1.32962 4.97226 1.43963 4.89525 1.55382V1.55459H2.33181C1.71357 1.55521 1.12082 1.80108 0.683654 2.23825C0.246488 2.67541 0.00061732 3.26816 0 3.88641V14.7682C0.00061732 15.3864 0.246488 15.9792 0.683654 16.4164C1.12082 16.8535 1.71357 17.0994 2.33181 17.1H13.2136C13.8318 17.0994 14.4246 16.8535 14.8618 16.4164C15.2989 15.9792 15.5448 15.3864 15.5454 14.7682V3.88641C15.5448 3.26816 15.2989 2.67541 14.8618 2.23825C14.4246 1.80108 13.8318 1.55521 13.2136 1.55459ZM13.9909 14.7682C13.9909 14.9743 13.909 15.172 13.7632 15.3178C13.6174 15.4636 13.4197 15.5455 13.2136 15.5455H2.33181C2.12567 15.5455 1.92796 15.4636 1.7822 15.3178C1.63643 15.172 1.55454 14.9743 1.55454 14.7682V3.88641C1.55454 3.68026 1.63643 3.48256 1.7822 3.33679C1.92796 3.19103 2.12567 3.10913 2.33181 3.10913H5.86839C5.95759 2.66987 6.19591 2.27494 6.54296 1.99127C6.89002 1.70761 7.32447 1.55265 7.77271 1.55265C8.22094 1.55265 8.65539 1.70761 9.00245 1.99127C9.3495 2.27494 9.58782 2.66987 9.67702 3.10913H13.2136C13.4197 3.10913 13.6174 3.19103 13.7632 3.33679C13.909 3.48256 13.9909 3.68026 13.9909 3.88641V14.7682Z" fill="#C4C4C4"/>
</svg>
