<svg width="14" height="18" viewBox="0 0 14 18" fill="none" xmlns="http://www.w3.org/2000/svg">
<path d="M8.16667 4.78125V0H0.875C0.390104 0 0 0.376172 0 0.84375V17.1562C0 17.6238 0.390104 18 0.875 18H13.125C13.6099 18 14 17.6238 14 17.1562V5.625H9.04167C8.56042 5.625 8.16667 5.24531 8.16667 4.78125ZM10.543 12.3754H8.16667V15.1879C8.16667 15.4986 7.90562 15.7504 7.58333 15.7504H6.41667C6.09437 15.7504 5.83333 15.4986 5.83333 15.1879V12.3754H3.45698C2.93635 12.3754 2.67641 11.7675 3.04609 11.4135L6.56141 8.04902C6.80385 7.81664 7.19542 7.81664 7.43786 8.04902L10.9532 11.4135C11.3232 11.7675 11.0636 12.3754 10.543 12.3754ZM13.7448 3.69141L10.1755 0.246094C10.0115 0.0878906 9.78906 0 9.55573 0H9.33333V4.5H14V4.28555C14 4.06406 13.9089 3.84961 13.7448 3.69141Z" fill="white"/>
</svg>
